<svg xmlns="http://www.w3.org/2000/svg" viewBox="0 0 59.201 33.94"><defs><style>.a{opacity:0.33;}</style></defs><g class="a" transform="translate(0 -12.63)"><path d="M51.062,21.561a30.49,30.49,0,0,0-43.121,0L0,29.5l8.138,8.138a30.492,30.492,0,0,0,43.122,0L59.2,29.7ZM49.845,36.225a28.49,28.49,0,0,1-40.292,0L2.829,29.5l6.527-6.527a28.49,28.49,0,0,1,40.292,0L56.372,29.7Z"/><path d="M29.572,16.57a13,13,0,1,0,13,13A13.015,13.015,0,0,0,29.572,16.57Zm0,8a5.006,5.006,0,0,0-5,5,1,1,0,0,1-2,0,7.008,7.008,0,0,1,7-7,1,1,0,0,1,0,2Z"/></g></svg>