<svg xmlns="http://www.w3.org/2000/svg" viewBox="0 0 48.503 58.113">
  <defs>
    <style>
      .cls-1 {
        fill: #cc00db;
        stroke: #707070;
        stroke-width: 0.113px;
      }
    </style>
  </defs>
  <g id="user" transform="translate(0.057 0.057)">
    <path id="Path_3" data-name="Path 3" class="cls-1" d="M23.829,27.939a13.517,13.517,0,0,0,9.878-4.093A13.516,13.516,0,0,0,37.8,13.969a13.519,13.519,0,0,0-4.093-9.877A13.52,13.52,0,0,0,23.829,0a13.516,13.516,0,0,0-9.877,4.092,13.517,13.517,0,0,0-4.093,9.877,13.516,13.516,0,0,0,4.093,9.878,13.52,13.52,0,0,0,9.877,4.092Zm0,0"/>
    <path id="Path_4" data-name="Path 4" class="cls-1" d="M48.272,44.6a34.5,34.5,0,0,0-.47-3.665,28.874,28.874,0,0,0-.9-3.685,18.2,18.2,0,0,0-1.515-3.436A12.968,12.968,0,0,0,43.1,30.836a10.071,10.071,0,0,0-3.281-2.062,11.34,11.34,0,0,0-4.189-.758,4.252,4.252,0,0,0-2.27.963c-.681.444-1.477.957-2.365,1.525a13.553,13.553,0,0,1-3.06,1.348,11.884,11.884,0,0,1-7.486,0A13.521,13.521,0,0,1,17.392,30.5c-.88-.562-1.677-1.076-2.367-1.526a4.246,4.246,0,0,0-2.27-.963,11.325,11.325,0,0,0-4.188.759,10.062,10.062,0,0,0-3.282,2.062A12.97,12.97,0,0,0,3,33.813,18.236,18.236,0,0,0,1.487,37.25a28.943,28.943,0,0,0-.9,3.684A34.383,34.383,0,0,0,.116,44.6C.039,45.71,0,46.862,0,48.025a9.631,9.631,0,0,0,2.86,7.286A10.3,10.3,0,0,0,10.231,58H38.158a10.3,10.3,0,0,0,7.37-2.689,9.627,9.627,0,0,0,2.861-7.287c0-1.169-.04-2.321-.117-3.426Zm0,0"/>
  </g>
</svg>
